<svg fill="none" height="24" viewBox="0 0 24 24" width="24" xmlns="http://www.w3.org/2000/svg" xmlns:xlink="http://www.w3.org/1999/xlink"><clipPath id="a"><path d="m0 0h24v24h-24z"/></clipPath><g clip-path="url(#a)"><path clip-rule="evenodd" d="m21 5.68288c0-1.42916-1.1027-2.58762-2.4632-2.58762-3.2816 0-9.79196 0-13.07364 0-1.36043 0-2.46316 1.15846-2.46316 2.58762v14.72952c0 1.4292 1.10273 2.5876 2.46316 2.5876h13.07364c1.3605 0 2.4632-1.1584 2.4632-2.5876zm-.9474 0v14.72952c0 .8798-.6783 1.5924-1.5158 1.5924h-13.07364c-.83748 0-1.51579-.7126-1.51579-1.5924v-14.72952c0-.87979.67831-1.59238 1.51579-1.59238h13.07364c.8375 0 1.5158.71259 1.5158 1.59238z" fill="#000" fill-rule="evenodd"/><path clip-rule="evenodd" d="m3.52943 9.04774h16.94117c.2918 0 .5289-.23466.5299-.52381 0-.28914-.2381-.52381-.5299-.52381h-16.94117c-.29176 0-.52988.23467-.52894.52381 0 .28915.23718.52381.52894.52381z" fill="#000" fill-rule="evenodd"/><g fill="#ff7949"><path clip-rule="evenodd" d="m16 1.43665v4.36508c0 .24117.224.43651.5.43651s.5-.19534.5-.43651v-4.36508c0-.24117-.224-.43651-.5-.43651s-.5.19534-.5.43651z" fill-rule="evenodd"/><path clip-rule="evenodd" d="m7 1.43665v4.36508c0 .24117.224.43651.5.43651s.5-.19534.5-.43651v-4.36508c0-.24117-.224-.43651-.5-.43651s-.5.19534-.5.43651z" fill-rule="evenodd"/><path d="m8 14.6192c.55228 0 1-.4691 1-1.0477 0-.5785-.44772-1.0476-1-1.0476s-1 .4691-1 1.0476c0 .5786.44772 1.0477 1 1.0477z"/><path d="m8 18.8097c.55228 0 1-.4691 1-1.0477 0-.5785-.44772-1.0476-1-1.0476s-1 .4691-1 1.0476c0 .5786.44772 1.0477 1 1.0477z"/><path d="m12 14.6192c.5523 0 1-.4691 1-1.0477 0-.5785-.4477-1.0476-1-1.0476s-1 .4691-1 1.0476c0 .5786.4477 1.0477 1 1.0477z"/><path d="m12 18.8097c.5523 0 1-.4691 1-1.0477 0-.5785-.4477-1.0476-1-1.0476s-1 .4691-1 1.0476c0 .5786.4477 1.0477 1 1.0477z"/><path d="m16 14.6192c.5523 0 1-.4691 1-1.0477 0-.5785-.4477-1.0476-1-1.0476s-1 .4691-1 1.0476c0 .5786.4477 1.0477 1 1.0477z"/><path d="m16 18.8097c.5523 0 1-.4691 1-1.0477 0-.5785-.4477-1.0476-1-1.0476s-1 .4691-1 1.0476c0 .5786.4477 1.0477 1 1.0477z"/></g></g></svg>