<svg height="64" viewBox="0 0 64 64" width="64" xmlns="http://www.w3.org/2000/svg"><g fill="none" fill-rule="evenodd"><path d="m28 44v-16l14-10 14 10v16" stroke="#979797" stroke-linecap="round" stroke-width="4" transform="matrix(0 1 1 0 11 -11)"/><path d="m19 39.9100341v-18.4224042" stroke="#979797" stroke-linecap="round" stroke-width="4" transform="matrix(0 1 1 0 -11.5 11.5)"/><g fill="#22ba8e"><path d="m7.66232726 27.486303c.73877626-.8208625 1.94216312-.814647 2.67534544 0l6.3246546 7.027394c.7387762.8208625.4450499 1.486303-.6574166 1.486303h-14.00982141c-1.10185739 0-1.39059891-.671656-.65741655-1.486303z" transform="matrix(0 1 -1 0 40 22)"/><path d="m54.6623273 13.486303c.7387762-.8208625 1.9421631-.814647 2.6753454 0l6.3246546 7.027394c.7387762.8208625.4450499 1.486303-.6574166 1.486303h-14.0098214c-1.1018574 0-1.3905989-.671656-.6574166-1.486303z" transform="matrix(0 1 1 0 39 -39)"/><path d="m54.6623273 41.486303c.7387762-.8208625 1.9421631-.814647 2.6753454 0l6.3246546 7.027394c.7387762.8208625.4450499 1.486303-.6574166 1.486303h-14.0098214c-1.1018574 0-1.3905989-.671656-.6574166-1.486303z" transform="matrix(0 1 1 0 11 -11)"/></g></g></svg>