<svg fill="none" height="48" viewBox="0 0 48 48" width="48" xmlns="http://www.w3.org/2000/svg"><g fill="#000"><path d="m0 5.715v36.57h48v-36.57zm11.415 34.275h-9.135v-31.995h9.135zm22.86 0h-20.565v-31.995h20.565zm11.43 0h-9.135v-31.995h9.135z"/><path d="m43.425 30.855h-4.575v4.575h4.575z"/><path d="m43.425 21.705h-4.575v4.575h4.575z"/><path d="m43.425 12.57h-4.575v4.575h4.575z"/><path d="m22.845 28.575h2.295v-2.295h2.28v-2.28h2.28v-2.295h-2.28v-2.28h-2.28v-2.28h-2.295v-2.295h-4.56v16.005h4.56z"/><path d="m9.135 30.855h-4.575v4.575h4.575z"/><path d="m9.135 21.705h-4.575v4.575h4.575z"/><path d="m9.135 12.57h-4.575v4.575h4.575z"/></g></svg>