<svg enable-background="new 0 0 128 128" viewBox="0 0 128 128" xmlns="http://www.w3.org/2000/svg" xmlns:xlink="http://www.w3.org/1999/xlink"><linearGradient id="a" gradientUnits="userSpaceOnUse" x1="64" x2="64" y1="2" y2="127.4"><stop offset="0" stop-color="#29b6f6"/><stop offset=".5369" stop-color="#169fe4"/><stop offset=".9954" stop-color="#0288d1"/></linearGradient><path d="m116 124h-104c-4.42 0-8-3.58-8-8v-104c0-4.42 3.58-8 8-8h104c4.42 0 8 3.58 8 8v104c0 4.42-3.58 8-8 8z" fill="url(#a)"/><path d="m116 7c2.76 0 5 2.24 5 5v104c0 2.76-2.24 5-5 5h-104c-2.76 0-5-2.24-5-5v-104c0-2.76 2.24-5 5-5zm0-3h-104c-4.42 0-8 3.58-8 8v104c0 4.42 3.58 8 8 8h104c4.42 0 8-3.58 8-8v-104c0-4.42-3.58-8-8-8z" fill="#424242" opacity=".2"/><g fill="#424242" opacity=".2"><path d="m34.04 48c1.13 0 2.05.92 2.05 2.05v.39c0 1.13-.92 2.05-2.05 2.05h-10.68c-1.13 0-2.05.92-2.05 2.05v5.42c0 1.13.92 2.05 2.05 2.05h8.79c1.13 0 2.05.92 2.05 2.05v.39c0 1.13-.92 2.05-2.05 2.05h-8.79c-1.13 0-2.05.92-2.05 2.05v9.42c0 1.13-.92 2.05-2.05 2.05h-1.46c-1.13 0-2.05-.92-2.05-2.05v-27.92c0-1.13.92-2.05 2.05-2.05zm0-3h-16.24c-2.78 0-5.05 2.26-5.05 5.05v27.91c0 2.78 2.26 5.05 5.05 5.05h1.47c2.78 0 5.05-2.26 5.05-5.05v-8.47h7.83c2.78 0 5.05-2.26 5.05-5.05v-.39c0-2.78-2.26-5.05-5.05-5.05h-7.83v-3.52h9.72c2.78 0 5.05-2.26 5.05-5.05v-.39c0-2.78-2.27-5.04-5.05-5.04z"/><path d="m50.84 48c3.69 0 6.54.83 8.55 2.49s3.01 4.05 3.01 7.19c0 2.14-.52 3.93-1.55 5.38-.7.98-1.58 1.8-2.65 2.47-.9.57-1.19 1.74-.69 2.68l6.21 11.51v.28h-4.72c-.76 0-1.46-.42-1.81-1.1l-5.27-10.11c-.35-.68-1.05-1.1-1.81-1.1h-2.91c-1.13 0-2.05.92-2.05 2.05v8.22c0 1.13-.92 2.05-2.05 2.05h-1.47c-1.13 0-2.05-.92-2.05-2.05v-27.91c0-1.13.92-2.05 2.05-2.05zm-3.65 15.21h3.67c1.88 0 3.34-.47 4.4-1.42 1.05-.95 1.58-2.24 1.58-3.88 0-1.71-.49-3.04-1.46-3.98s-2.43-1.42-4.36-1.45h-3.82c-1.13 0-2.05.92-2.05 2.05v6.63c-.01 1.13.91 2.05 2.04 2.05m3.65-18.21h-9.21c-2.78 0-5.05 2.26-5.05 5.05v27.91c0 2.78 2.26 5.05 5.05 5.05h1.47c2.78 0 5.05-2.26 5.05-5.05v-7.26h1.38l5 9.59c.87 1.67 2.58 2.71 4.47 2.71h7.72v-4.05l-.36-.67-5.79-10.74c1.06-.78 1.98-1.7 2.73-2.74 1.4-1.96 2.11-4.35 2.11-7.12 0-4.06-1.38-7.26-4.1-9.51-2.57-2.1-6.08-3.17-10.47-3.17zm-2.7 10.48h2.87c1.06.02 1.89.23 2.28.61.13.13.54.52.54 1.82 0 .99-.31 1.4-.58 1.64-.48.43-1.29.65-2.39.65h-2.71v-4.72z"/><path d="m85.49 48c1.13 0 2.05.92 2.05 2.05v.39c0 1.13-.92 2.05-2.05 2.05h-11.11c-1.13 0-2.05.92-2.05 2.05v4.74c0 1.13.92 2.05 2.05 2.05h9.05c1.13 0 2.05.92 2.05 2.05v.3c0 1.13-.92 2.05-2.05 2.05h-9.05c-1.13 0-2.05.92-2.05 2.05v5.71c0 1.13.92 2.05 2.05 2.05h11.27c1.13 0 2.05.92 2.05 2.05v.39c0 1.13-.92 2.05-2.05 2.05h-16.83c-1.13 0-2.05-.92-2.05-2.05v-27.93c0-1.13.92-2.05 2.05-2.05zm0-3h-16.67c-2.78 0-5.05 2.26-5.05 5.05v27.91c0 2.78 2.26 5.05 5.05 5.05h16.83c2.78 0 5.05-2.26 5.05-5.05v-.39c0-2.78-2.26-5.05-5.05-5.05h-10.32v-3.8h8.1c2.78 0 5.05-2.26 5.05-5.05v-.3c0-2.78-2.26-5.05-5.05-5.05h-8.1v-2.84h10.16c2.78 0 5.05-2.26 5.05-5.05v-.39c0-2.78-2.26-5.04-5.05-5.04z"/><path d="m110.04 48c1.13 0 2.05.92 2.05 2.05v.39c0 1.13-.92 2.05-2.05 2.05h-11.11c-1.13 0-2.05.92-2.05 2.05v4.74c0 1.13.92 2.05 2.05 2.05h9.05c1.13 0 2.05.92 2.05 2.05v.3c0 1.13-.92 2.05-2.05 2.05h-9.05c-1.13 0-2.05.92-2.05 2.05v5.71c0 1.13.92 2.05 2.05 2.05h11.27c1.13 0 2.05.92 2.05 2.05v.39c0 1.13-.92 2.05-2.05 2.05h-16.83c-1.13 0-2.05-.92-2.05-2.05v-27.93c0-1.13.92-2.05 2.05-2.05zm0-3h-16.67c-2.78 0-5.05 2.26-5.05 5.05v27.91c0 2.78 2.26 5.05 5.05 5.05h16.83c2.78 0 5.05-2.26 5.05-5.05v-.39c0-2.78-2.26-5.05-5.05-5.05h-10.32v-3.8h8.1c2.78 0 5.05-2.26 5.05-5.05v-.3c0-2.78-2.26-5.05-5.05-5.05h-8.1v-2.84h10.16c2.78 0 5.05-2.26 5.05-5.05v-.39c0-2.78-2.26-5.04-5.05-5.04z"/></g><g fill="#fafafa"><path d="m32.15 66.48h-8.79c-1.13 0-2.05.92-2.05 2.05v9.42c0 1.13-.92 2.05-2.05 2.05h-1.46c-1.13 0-2.05-.92-2.05-2.05v-27.9c0-1.13.92-2.05 2.05-2.05h16.24c1.13 0 2.05.92 2.05 2.05v.39c0 1.13-.92 2.05-2.05 2.05h-10.68c-1.13 0-2.05.92-2.05 2.05v5.42c0 1.13.92 2.05 2.05 2.05h8.79c1.13 0 2.05.92 2.05 2.05v.39c0 1.12-.92 2.03-2.05 2.03z"/><path d="m50.1 67.69h-2.91c-1.13 0-2.05.92-2.05 2.05v8.22c0 1.13-.92 2.05-2.05 2.05h-1.47c-1.13 0-2.05-.92-2.05-2.05v-27.91c0-1.13.92-2.05 2.05-2.05h9.21c3.69 0 6.54.83 8.55 2.49s3.01 4.05 3.01 7.19c0 2.14-.52 3.93-1.55 5.38-.7.98-1.58 1.8-2.65 2.47-.9.57-1.19 1.74-.69 2.68l6.21 11.51v.28h-4.71c-.76 0-1.46-.42-1.81-1.1l-5.27-10.11c-.36-.67-1.06-1.1-1.82-1.1zm-4.96-6.53c0 1.13.92 2.05 2.05 2.05h3.67c1.88 0 3.34-.47 4.4-1.42 1.05-.95 1.58-2.24 1.58-3.88 0-1.71-.49-3.04-1.46-3.98s-2.43-1.42-4.36-1.45h-3.82c-1.13 0-2.05.92-2.05 2.05v6.63z"/><path d="m83.43 65.71h-9.05c-1.13 0-2.05.92-2.05 2.05v5.71c0 1.13.92 2.05 2.05 2.05h11.27c1.13 0 2.05.92 2.05 2.05v.39c0 1.13-.92 2.05-2.05 2.05h-16.83c-1.13 0-2.05-.92-2.05-2.05v-27.91c0-1.13.92-2.05 2.05-2.05h16.68c1.13 0 2.05.92 2.05 2.05v.39c0 1.13-.92 2.05-2.05 2.05h-11.12c-1.13 0-2.05.92-2.05 2.05v4.74c0 1.13.92 2.05 2.05 2.05h9.05c1.13 0 2.05.92 2.05 2.05v.3c-.01 1.12-.92 2.03-2.05 2.03z"/><path d="m107.98 65.71h-9.05c-1.13 0-2.05.92-2.05 2.05v5.71c0 1.13.92 2.05 2.05 2.05h11.27c1.13 0 2.05.92 2.05 2.05v.39c0 1.13-.92 2.05-2.05 2.05h-16.83c-1.13 0-2.05-.92-2.05-2.05v-27.91c0-1.13.92-2.05 2.05-2.05h16.68c1.13 0 2.05.92 2.05 2.05v.39c0 1.13-.92 2.05-2.05 2.05h-11.12c-1.13 0-2.05.92-2.05 2.05v4.74c0 1.13.92 2.05 2.05 2.05h9.05c1.13 0 2.05.92 2.05 2.05v.3c-.01 1.12-.92 2.03-2.05 2.03z"/></g></svg>