<svg width="15" height="15" viewBox="0 0 15 15" fill="none" xmlns="http://www.w3.org/2000/svg">
<path fill-rule="evenodd" clip-rule="evenodd" d="M5 5.5C5 4.11929 6.11929 3 7.5 3C8.88071 3 10 4.11929 10 5.5V7.16667C10 8.17919 10.8208 9 11.8333 9C11.9254 9 12 9.07462 12 9.16667V9.5C12 9.77614 11.7761 10 11.5 10H7.5H3.5C3.22386 10 3 9.77614 3 9.5V9.16667C3 9.07462 3.07462 9 3.16667 9C4.17919 9 5 8.17919 5 7.16667V5.5ZM8.91465 11H11.5C12.3284 11 13 10.3284 13 9.5V9.16667C13 8.52234 12.4777 8 11.8333 8C11.3731 8 11 7.6269 11 7.16667V5.5C11 3.567 9.433 2 7.5 2C5.567 2 4 3.567 4 5.5V7.16667C4 7.6269 3.6269 8 3.16667 8C2.52233 8 2 8.52234 2 9.16667V9.5C2 10.3284 2.67157 11 3.5 11H6.08535C6.03008 11.1564 6 11.3247 6 11.5C6 12.3284 6.67157 13 7.5 13C8.32843 13 9 12.3284 9 11.5C9 11.3247 8.96992 11.1564 8.91465 11Z" fill="#151515"/>
</svg>
