<svg fill="none" height="164" viewBox="0 0 158 164" width="158" xmlns="http://www.w3.org/2000/svg" xmlns:xlink="http://www.w3.org/1999/xlink"><clipPath id="a"><path d="m.313965.73999h157.521v162.772h-157.521z"/></clipPath><g clip-path="url(#a)"><path d="m123.953 54.1511c8.199 2.6909 15.005 3.7169 21.43 3.2372 8.084-.6065 12.37-5.2345 12.397-13.3822.011-3.6979-.164-7.4501-.333-11.0783-.049-1.0234-.095-2.0465-.139-3.0696.004-1.1626-.38-2.2936-1.09-3.2137-.711-.9201-1.709-1.5769-2.835-1.8665-1.529-.4594-3.084-.8321-4.655-1.1159-16.679-3.0158-29.516-9.4623-39.246-19.70836-1.652-1.70678-3.881-2.73635-6.252-2.88782h-.07c-5.0172.06563-10.0946.59904-15.006 1.11558l-2.4941.25798c-2.8603.29207-4.5819 2.16597-4.7217 5.13917-.0656 1.36977-.0932 2.41814-.0925 3.39805.0033 6.906.0125 13.8119.0276 20.7179.0295 16.3933.0603 33.345-.0407 50.0129-.0473 7.8261-.4641 15.716-1.2405 23.4495-.172 1.973-.741 3.891-1.6717 5.639s-2.2053 3.29-3.7457 4.534c-1.677 1.3-3.5981 2.248-5.6491 2.789-2.0511.541-4.1906.663-6.29.358-8.4254-1.064-13.0243-6.069-14.4748-15.752-.8054-5.3724.2626-10.2208 3.0953-14.0229 2.7842-3.7412 7.0188-6.1145 12.2439-6.8627 4.871-.6977 6.3582-2.5945 5.8922-7.5184-.3977-4.1953-1.0344-8.43-1.65-12.5243-.401-2.6667-.8158-5.4252-1.1598-8.1385-.3494-2.7632-2.0264-4.4039-4.9845-4.8758-1.8397-.2857-3.7108-.3045-5.5558-.0554-22.427 3.0238-38.9209 14.651-49.02326 34.559-7.285345 14.3508-8.16021 30.824-2.40807 45.196 5.58478 13.957 16.77923 24.514 31.51993 29.726 9.0615 3.264 18.6167 4.947 28.2482 4.975 10.3179 0 20.7687-1.965 31.5071-5.894 12.688-4.645 20.135-14.129 22.13-28.187 2.783-19.605 3.224-36.0839 1.387-51.8609-.665-5.7167-.902-11.4747-1.152-17.5708-.103-2.5157-.21-5.1077-.349-7.7606.715.2507 1.373.483 1.99.7002 1.715.6065 3.069 1.085 4.461 1.5412zm-17.59 5.1949c.123 11.4761.251 23.344.101 35.0091l-.009.6616c-.131 10.5483-.272 21.4553-2.297 32.0513-1.853 9.702-6.8612 15.809-15.3109 18.669-17.878 6.049-34.3129 6.09-50.2468.122-22.2309-8.328-28.93273-28.828-25.7127-45.451 4.2274-21.8194 16.5397-35.7174 36.5954-41.3094 2.1003-.5848 4.5944-1.2694 7.1299-1.9113.6063-.1361 1.2198-.2377 1.8376-.3045.2513-.0335.5252-.0702.8284-.1122l.8925 16.1367c-.2349.1181-.4536.2343-.661.3439-.4602.2776-.9549.4929-1.4715.6413-14.2642 3.1025-22.4336 16.6965-19.8666 33.0575.7261 4.736 2.705 9.194 5.7317 12.909 3.0266 3.716 6.9911 6.556 11.4833 8.225 4.6965 1.797 9.7837 2.327 14.7496 1.534 4.9658-.793 9.6357-2.88 13.5389-6.051 5.5421-4.536 8.2417-10.2 7.8072-16.379-.5002-7.127-.1707-14.3536.149-21.3423.2021-4.4408.4121-9.0319.4075-13.5613-.0105-11.6481-.0564-23.4902-.101-34.9427-.0217-5.4073-.0414-10.8141-.0598-16.2206-.0065-1.9691-.0046-3.9381 0-5.959v-2.4456c2.5755-.9733 5.1037-.8047 7.5532-.6393.9191.0617 1.8631.1247 2.7911.1247h.015l.737.7313c9.724 9.6481 11.79 11.6953 43.017 21.9873l-.447 8.7016c-.197.0978-.376.1968-.545.29-.265.1697-.556.2943-.862.3689-9.264-.6931-19.945-1.8874-29.469-7.312-1.348-.6939-2.771-1.2323-4.24-1.6043-.808-.2409-1.645-.4903-2.559-.8047-.095-.0327-.195-.044-.295-.033-.099.0109-.195.0439-.28.0964s-.157.1234-.212.2074c-.054.0839-.089.1791-.101.2781-.12.9018-.248 1.6908-.365 2.4068-.236 1.2119-.372 2.441-.404 3.6753.018 6.052.084 12.2047.148 18.155z" fill="#000"/></g></svg>